<?xml version="1.0" encoding="utf-8"?>
<!-- Generator: Adobe Illustrator 24.0.1, SVG Export Plug-In . SVG Version: 6.00 Build 0)  -->
<svg version="1.1" id="Ebene_1" xmlns="http://www.w3.org/2000/svg" xmlns:xlink="http://www.w3.org/1999/xlink" x="0px" y="0px"
	 viewBox="0 0 1418.05 284.23" style="enable-background:new 0 0 1418.05 284.23;" xml:space="preserve">
<style type="text/css">
	.st0{fill:#ACC708;}
	.st1{fill:#164194;}
</style>
<g>
	<g>
		<path class="st0" d="M260.06,0H24.92C11.58,0,0.76,10.81,0.76,24.16v117.28c15.89-13.83,37.92-22.15,60.54-22.15
			c57.16,0,103.51,46.38,103.51,103.57c0,22.63-9.06,44.57-22.19,60.6h117.43c13.34,0,24.17-10.81,24.17-24.17V24.16
			C284.23,10.81,273.4,0,260.06,0z"/>
	</g>
</g>
<g>
	<g>
		<path class="st1" d="M639.4,0c0,3.09,0,280.39,0,283.46c-2.84,0-53.86,0-56.69,0c0-3.07,0-280.38,0-283.46
			C585.54,0,636.56,0,639.4,0z"/>
	</g>
</g>
<g>
	<g>
		<path class="st1" d="M740.83,79.35c0,0,0,201.11,0,204.11c-2.84,0-53.86,0-56.69,0c0-2.99,0-204.11,0-204.11H740.83z"/>
	</g>
</g>
<g>
	<g>
		<path class="st1" d="M740.83,0c0,2.98,0,53.71,0,56.69c-2.84,0-53.86,0-56.69,0c0-2.98,0-53.71,0-56.69
			C686.97,0,737.99,0,740.83,0z"/>
	</g>
</g>
<path id="k_x5F_neu_x5F_rund" class="st1" d="M1073.96,283.35h65.19l-69.54-107.01l57.03-97.04h-63.73
	c-47.37,82.4-52.46,88.33-52.46,97.04C1010.45,184.83,1016.37,191.53,1073.96,283.35z"/>
<path id="c_x5F_neu" class="st1" d="M846.18,226.77c-7.79,0-14.4-6.38-14.4-14.17v-63.78c0-7.79,6.6-14.17,14.4-14.17h70.44V79.37
	h-93.34c-26.51,0-48.19,21.68-48.19,48.19v107.91c0,26.5,21.68,48.19,48.19,48.19h93.34v-56.89L846.18,226.77L846.18,226.77z"/>
<g>
	<g>
		<path class="st1" d="M1208.86,0c0,3.09,0,280.39,0,283.46c-2.85,0-53.84,0-56.69,0c0-3.08,0-280.37,0-283.46
			C1155.02,0,1206.01,0,1208.86,0z"/>
	</g>
</g>
<g>
	<path class="st1" d="M1005.38,0c0,3.1,0,280.38,0,283.46c-2.86,0-53.87,0-56.69,0c0-3.08,0-280.36,0-283.46
		C951.51,0,1002.52,0,1005.38,0z"/>
</g>
<path id="E_x5F_neu" class="st1" d="M1369.86,79.37h-77.16c-26.51,0-48.19,21.68-48.19,48.19v107.71c0,26.5,21.69,48.19,48.19,48.19
	h125.35v-56.69c0,0-106.93,0-112.63,0c-9.49,0-8.82-7.92-8.82-7.92l121.45-42.6v-48.7C1418.05,101.06,1396.36,79.37,1369.86,79.37z
	 M1369.51,143.93l-73.61,24.9v-30.15c0-7.79,6.66-13.89,14.46-13.89h44.98c7.8,0,14.17,6.38,14.17,14.17L1369.51,143.93
	L1369.51,143.93z"/>
<path class="st1" d="M514.12,138.37c20.02-6.79,25.23-27.04,25.23-51.92V52.44C539.35,25.94,513.41,0,486.9,0H340.92v283.55h151.65
	c26.5,0,52.44-25.94,52.44-52.44v-40.25C545.02,165.97,535.29,143.07,514.12,138.37z M397.05,52.24h72c7.8,0,14.17,6.38,14.17,14.17
	v27.65c0,7.79-6.38,14.17-14.17,14.17h-72V52.24z M490.31,215.41c0,7.79-6.38,14.17-14.17,14.17h-79.09v-60.02h79.09
	c7.8,0,14.17,6.38,14.17,14.17V215.41z"/>
<circle class="st0" cx="61.02" cy="223.21" r="61.02"/>
</svg>
